name p9_grf_mean_speed_1.0
datacolumns 13
datarows 34
range 0.0000000000 0.3300000000
endheader
time	grf_x_l_mean	grf_x_l_var	grf_y_l_mean	grf_y_l_var	grf_z_l_mean	grf_z_l_var	grf_x_r_mean	grf_x_r_var	grf_y_r_mean	grf_y_r_var	grf_z_r_mean	grf_z_r_var
0.0000000000	73.8580403163	1.0000000000	725.1006808949	1.0000000000	0.0000000000	0.0000000000	14.1330812560	1.0000000000	10.7642014686	1.0000000000	0.0000000000	0.0000000000
0.0100000000	79.9364950100	1.0000000000	715.5092995847	1.0000000000	0.0000000000	0.0000000000	24.5979620261	1.0000000000	36.9318324113	1.0000000000	0.0000000000	0.0000000000
0.0200000000	86.7942325883	1.0000000000	699.9275619237	1.0000000000	0.0000000000	0.0000000000	31.4959430140	1.0000000000	79.0858120421	1.0000000000	0.0000000000	0.0000000000
0.0300000000	93.3353925966	1.0000000000	676.7090028519	1.0000000000	0.0000000000	0.0000000000	27.8047767452	1.0000000000	138.3850755006	1.0000000000	0.0000000000	0.0000000000
0.0400000000	99.0668699499	1.0000000000	644.5064203641	1.0000000000	0.0000000000	0.0000000000	13.3831724355	1.0000000000	215.8848980259	1.0000000000	0.0000000000	0.0000000000
0.0500000000	103.5787843924	1.0000000000	602.3973300010	1.0000000000	0.0000000000	0.0000000000	-8.0197517697	1.0000000000	309.7368046595	1.0000000000	0.0000000000	0.0000000000
0.0600000000	105.5154865484	1.0000000000	549.7667206671	1.0000000000	0.0000000000	0.0000000000	-33.6852870923	1.0000000000	410.3946649322	1.0000000000	0.0000000000	0.0000000000
0.0700000000	103.9875006121	1.0000000000	486.5392942952	1.0000000000	0.0000000000	0.0000000000	-58.6964702425	1.0000000000	503.4583648611	1.0000000000	0.0000000000	0.0000000000
0.0800000000	98.3053465856	1.0000000000	414.4690282119	1.0000000000	0.0000000000	0.0000000000	-77.9344457058	1.0000000000	577.8560698121	1.0000000000	0.0000000000	0.0000000000
0.0900000000	87.6207520848	1.0000000000	337.1855540750	1.0000000000	0.0000000000	0.0000000000	-90.5011397317	1.0000000000	630.1107248167	1.0000000000	0.0000000000	0.0000000000
0.1000000000	72.1343664665	1.0000000000	259.5754315965	1.0000000000	0.0000000000	0.0000000000	-96.8985968042	1.0000000000	663.2268445874	1.0000000000	0.0000000000	0.0000000000
0.1100000000	53.6079182425	1.0000000000	187.4003333155	1.0000000000	0.0000000000	0.0000000000	-98.1762150002	1.0000000000	682.9907118292	1.0000000000	0.0000000000	0.0000000000
0.1200000000	34.7966850587	1.0000000000	125.5738491583	1.0000000000	0.0000000000	0.0000000000	-96.8785824008	1.0000000000	695.4892030701	1.0000000000	0.0000000000	0.0000000000
0.1300000000	19.0880699241	1.0000000000	76.3473625976	1.0000000000	0.0000000000	0.0000000000	-93.9012934408	1.0000000000	705.3036933970	1.0000000000	0.0000000000	0.0000000000
0.1400000000	8.1205105097	1.0000000000	39.9821043159	1.0000000000	0.0000000000	0.0000000000	-89.4850344417	1.0000000000	714.5699435566	1.0000000000	0.0000000000	0.0000000000
0.1500000000	1.6926778279	1.0000000000	15.8499533273	1.0000000000	0.0000000000	0.0000000000	-84.5448915112	1.0000000000	723.0749779394	1.0000000000	0.0000000000	0.0000000000
0.1600000000	-1.0511837625	1.0000000000	2.4639735737	1.0000000000	0.0000000000	0.0000000000	-78.8391015311	1.0000000000	728.9110407120	1.0000000000	0.0000000000	0.0000000000
0.1700000000	0.0000000000	1.0000000000	0.0000000000	1.0000000000	0.0000000000	0.0000000000	-72.1074417682	1.0000000000	729.4465633746	1.0000000000	0.0000000000	0.0000000000
0.1800000000	0.0000000000	1.0000000000	0.0000000000	1.0000000000	0.0000000000	0.0000000000	-65.1837755021	1.0000000000	723.2156733312	1.0000000000	0.0000000000	0.0000000000
0.1900000000	0.0000000000	1.0000000000	0.0000000000	1.0000000000	0.0000000000	0.0000000000	-58.1711168345	1.0000000000	711.1053637899	1.0000000000	0.0000000000	0.0000000000
0.2000000000	0.0000000000	1.0000000000	0.0000000000	1.0000000000	0.0000000000	0.0000000000	-51.2509890730	1.0000000000	695.4931907821	1.0000000000	0.0000000000	0.0000000000
0.2100000000	0.0000000000	1.0000000000	0.0000000000	1.0000000000	0.0000000000	0.0000000000	-44.8795428157	1.0000000000	678.6955790874	1.0000000000	0.0000000000	0.0000000000
0.2200000000	0.0000000000	1.0000000000	0.0000000000	1.0000000000	0.0000000000	0.0000000000	-38.7685858083	1.0000000000	662.9570037737	1.0000000000	0.0000000000	0.0000000000
0.2300000000	0.0000000000	1.0000000000	0.0000000000	1.0000000000	0.0000000000	0.0000000000	-32.9883632751	1.0000000000	650.2990479618	1.0000000000	0.0000000000	0.0000000000
0.2400000000	0.1384169557	1.0000000000	0.0288463186	1.0000000000	0.0000000000	0.0000000000	-27.7899056179	1.0000000000	641.4209522770	1.0000000000	0.0000000000	0.0000000000
0.2500000000	0.1145077446	1.0000000000	0.0007946145	1.0000000000	0.0000000000	0.0000000000	-22.8427380133	1.0000000000	635.8528706995	1.0000000000	0.0000000000	0.0000000000
0.2600000000	0.0000000000	1.0000000000	0.0000000000	1.0000000000	0.0000000000	0.0000000000	-18.1643771492	1.0000000000	632.8435701026	1.0000000000	0.0000000000	0.0000000000
0.2700000000	0.0000000000	1.0000000000	0.0000000000	1.0000000000	0.0000000000	0.0000000000	-13.8854538339	1.0000000000	631.8779482797	1.0000000000	0.0000000000	0.0000000000
0.2800000000	0.0000000000	1.0000000000	0.0000000000	1.0000000000	0.0000000000	0.0000000000	-9.7178121949	1.0000000000	632.6532529755	1.0000000000	0.0000000000	0.0000000000
0.2900000000	0.0000000000	1.0000000000	0.0000000000	1.0000000000	0.0000000000	0.0000000000	-5.6322903078	1.0000000000	634.5092026448	1.0000000000	0.0000000000	0.0000000000
0.3000000000	0.0000000000	1.0000000000	0.0000000000	1.0000000000	0.0000000000	0.0000000000	-1.6826553297	1.0000000000	636.9852137601	1.0000000000	0.0000000000	0.0000000000
0.3100000000	0.0000000000	1.0000000000	0.0000000000	1.0000000000	0.0000000000	0.0000000000	2.2088586309	1.0000000000	640.3614439879	1.0000000000	0.0000000000	0.0000000000
0.3200000000	0.0000000000	1.0000000000	0.0000000000	1.0000000000	0.0000000000	0.0000000000	5.9789489835	1.0000000000	644.5741596165	1.0000000000	0.0000000000	0.0000000000
0.3300000000	0.0000000000	1.0000000000	0.0000000000	1.0000000000	0.0000000000	0.0000000000	9.5454987824	1.0000000000	649.1329870231	1.0000000000	0.0000000000	0.0000000000
